<mxfile host="app.diagrams.net" agent="Mozilla/5.0 (Windows NT 10.0; Win64; x64) AppleWebKit/537.36 (KHTML, like Gecko) Chrome/138.0.0.0 Safari/537.36" scale="1" border="0" version="27.1.4">
  <diagram name="Page-1" id="vI1ZFkF_VZ9kpP50E2va">
    <mxGraphModel dx="1206" dy="546" grid="1" gridSize="10" guides="1" tooltips="1" connect="1" arrows="1" fold="1" page="1" pageScale="1" pageWidth="850" pageHeight="1100" math="0" shadow="0">
      <root>
        <mxCell id="0" />
        <mxCell id="1" parent="0" />
        <mxCell id="9qP49IMP_gzPvQG4dJmj-4" style="edgeStyle=orthogonalEdgeStyle;shape=connector;rounded=0;orthogonalLoop=1;jettySize=auto;html=1;entryX=0;entryY=0.5;entryDx=0;entryDy=0;strokeColor=default;align=center;verticalAlign=middle;fontFamily=Helvetica;fontSize=11;fontColor=default;labelBackgroundColor=default;endArrow=classic;" edge="1" parent="1" source="fPaXjcl1kV30KWy46vOE-1" target="fPaXjcl1kV30KWy46vOE-4">
          <mxGeometry relative="1" as="geometry" />
        </mxCell>
        <mxCell id="fPaXjcl1kV30KWy46vOE-1" value="Extracting annotations and translating sequences of genbank files" style="rounded=1;whiteSpace=wrap;html=1;absoluteArcSize=1;arcSize=14;strokeWidth=2;fillColor=#dae8fc;strokeColor=#6c8ebf;" parent="1" vertex="1">
          <mxGeometry x="140" y="250" width="100" height="100" as="geometry" />
        </mxCell>
        <mxCell id="9qP49IMP_gzPvQG4dJmj-3" style="edgeStyle=orthogonalEdgeStyle;shape=connector;rounded=0;orthogonalLoop=1;jettySize=auto;html=1;entryX=0;entryY=0.5;entryDx=0;entryDy=0;strokeColor=default;align=center;verticalAlign=middle;fontFamily=Helvetica;fontSize=11;fontColor=default;labelBackgroundColor=default;endArrow=classic;" edge="1" parent="1" source="fPaXjcl1kV30KWy46vOE-2" target="fPaXjcl1kV30KWy46vOE-1">
          <mxGeometry relative="1" as="geometry" />
        </mxCell>
        <mxCell id="fPaXjcl1kV30KWy46vOE-2" value="Genbank&amp;nbsp;&lt;div&gt;files&lt;/div&gt;" style="strokeWidth=2;html=1;shape=mxgraph.flowchart.multi-document;whiteSpace=wrap;fillColor=#E1D5E7;strokeColor=#9673A6;" parent="1" vertex="1">
          <mxGeometry x="16" y="270" width="88" height="60" as="geometry" />
        </mxCell>
        <mxCell id="9qP49IMP_gzPvQG4dJmj-5" style="edgeStyle=orthogonalEdgeStyle;shape=connector;rounded=0;orthogonalLoop=1;jettySize=auto;html=1;entryX=0;entryY=0.5;entryDx=0;entryDy=0;strokeColor=default;align=center;verticalAlign=middle;fontFamily=Helvetica;fontSize=11;fontColor=default;labelBackgroundColor=default;endArrow=classic;" edge="1" parent="1" source="fPaXjcl1kV30KWy46vOE-4" target="fPaXjcl1kV30KWy46vOE-6">
          <mxGeometry relative="1" as="geometry" />
        </mxCell>
        <mxCell id="fPaXjcl1kV30KWy46vOE-4" value="Clustering by minimizers" style="rounded=1;whiteSpace=wrap;html=1;absoluteArcSize=1;arcSize=14;strokeWidth=2;fillColor=#dae8fc;strokeColor=#6c8ebf;" parent="1" vertex="1">
          <mxGeometry x="270" y="250" width="100" height="100" as="geometry" />
        </mxCell>
        <mxCell id="9qP49IMP_gzPvQG4dJmj-6" style="edgeStyle=orthogonalEdgeStyle;shape=connector;rounded=0;orthogonalLoop=1;jettySize=auto;html=1;entryX=0.5;entryY=1;entryDx=0;entryDy=0;strokeColor=default;align=center;verticalAlign=middle;fontFamily=Helvetica;fontSize=11;fontColor=default;labelBackgroundColor=default;endArrow=classic;" edge="1" parent="1" source="fPaXjcl1kV30KWy46vOE-6" target="9kaDLu1qKZGZK0Ud_UY_-6">
          <mxGeometry relative="1" as="geometry" />
        </mxCell>
        <mxCell id="fPaXjcl1kV30KWy46vOE-6" value="Create BLASTp database" style="rounded=1;whiteSpace=wrap;html=1;absoluteArcSize=1;arcSize=14;strokeWidth=2;fillColor=#dae8fc;strokeColor=#6c8ebf;" parent="1" vertex="1">
          <mxGeometry x="400" y="250" width="100" height="100" as="geometry" />
        </mxCell>
        <mxCell id="9qP49IMP_gzPvQG4dJmj-2" style="edgeStyle=orthogonalEdgeStyle;shape=connector;rounded=0;orthogonalLoop=1;jettySize=auto;html=1;entryX=0;entryY=0.5;entryDx=0;entryDy=0;strokeColor=default;align=center;verticalAlign=middle;fontFamily=Helvetica;fontSize=11;fontColor=default;labelBackgroundColor=default;endArrow=classic;" edge="1" parent="1" source="fPaXjcl1kV30KWy46vOE-8" target="fPaXjcl1kV30KWy46vOE-9">
          <mxGeometry relative="1" as="geometry" />
        </mxCell>
        <mxCell id="fPaXjcl1kV30KWy46vOE-8" value="Schema" style="strokeWidth=2;html=1;shape=mxgraph.flowchart.multi-document;whiteSpace=wrap;fillColor=#E1D5E7;strokeColor=#9673A6;" parent="1" vertex="1">
          <mxGeometry x="16" y="130" width="88" height="60" as="geometry" />
        </mxCell>
        <mxCell id="9qP49IMP_gzPvQG4dJmj-1" style="edgeStyle=orthogonalEdgeStyle;shape=connector;rounded=0;orthogonalLoop=1;jettySize=auto;html=1;entryX=0;entryY=0.5;entryDx=0;entryDy=0;strokeColor=default;align=center;verticalAlign=middle;fontFamily=Helvetica;fontSize=11;fontColor=default;labelBackgroundColor=default;endArrow=classic;" edge="1" parent="1" source="fPaXjcl1kV30KWy46vOE-9" target="9kaDLu1qKZGZK0Ud_UY_-6">
          <mxGeometry relative="1" as="geometry" />
        </mxCell>
        <mxCell id="fPaXjcl1kV30KWy46vOE-9" value="Translating Schema loci" style="rounded=1;whiteSpace=wrap;html=1;absoluteArcSize=1;arcSize=14;strokeWidth=2;fillColor=#dae8fc;strokeColor=#6c8ebf;" parent="1" vertex="1">
          <mxGeometry x="140" y="110" width="100" height="100" as="geometry" />
        </mxCell>
        <mxCell id="fPaXjcl1kV30KWy46vOE-19" value="Process BLASTp Results and write to file" style="rounded=1;whiteSpace=wrap;html=1;absoluteArcSize=1;arcSize=14;strokeWidth=2;fillColor=#dae8fc;strokeColor=#6c8ebf;" parent="1" vertex="1">
          <mxGeometry x="530" y="110" width="100" height="100" as="geometry" />
        </mxCell>
        <mxCell id="fPaXjcl1kV30KWy46vOE-28" value="genbank_&lt;div&gt;annotations.tsv&lt;/div&gt;" style="strokeWidth=2;html=1;shape=mxgraph.flowchart.document2;whiteSpace=wrap;size=0.25;fillColor=#d5e8d4;strokeColor=#82b366;" parent="1" vertex="1">
          <mxGeometry x="670" y="130" width="100" height="60" as="geometry" />
        </mxCell>
        <mxCell id="SnxLVO1X2V7iQgOzjOkk-10" style="edgeStyle=orthogonalEdgeStyle;rounded=0;orthogonalLoop=1;jettySize=auto;html=1;" parent="1" source="9kaDLu1qKZGZK0Ud_UY_-6" target="fPaXjcl1kV30KWy46vOE-19" edge="1">
          <mxGeometry relative="1" as="geometry" />
        </mxCell>
        <mxCell id="9kaDLu1qKZGZK0Ud_UY_-6" value="Run BLASTp" style="rounded=1;whiteSpace=wrap;html=1;absoluteArcSize=1;arcSize=14;strokeWidth=2;fillColor=#dae8fc;strokeColor=#6c8ebf;" parent="1" vertex="1">
          <mxGeometry x="400" y="110" width="100" height="100" as="geometry" />
        </mxCell>
        <mxCell id="SnxLVO1X2V7iQgOzjOkk-15" style="edgeStyle=orthogonalEdgeStyle;rounded=0;orthogonalLoop=1;jettySize=auto;html=1;entryX=0;entryY=0.5;entryDx=0;entryDy=0;entryPerimeter=0;" parent="1" source="fPaXjcl1kV30KWy46vOE-19" target="fPaXjcl1kV30KWy46vOE-28" edge="1">
          <mxGeometry relative="1" as="geometry" />
        </mxCell>
        <mxCell id="SnxLVO1X2V7iQgOzjOkk-18" value="Processes" style="rounded=0;whiteSpace=wrap;html=1;fillColor=#dae8fc;strokeColor=#6c8ebf;" parent="1" vertex="1">
          <mxGeometry x="660" y="365" width="120" height="60" as="geometry" />
        </mxCell>
        <mxCell id="SnxLVO1X2V7iQgOzjOkk-20" value="Input files" style="rounded=0;whiteSpace=wrap;html=1;fillColor=#e1d5e7;strokeColor=#9673a6;" parent="1" vertex="1">
          <mxGeometry x="660" y="285" width="120" height="60" as="geometry" />
        </mxCell>
        <mxCell id="SnxLVO1X2V7iQgOzjOkk-21" value="Output files" style="rounded=0;whiteSpace=wrap;html=1;fillColor=#d5e8d4;strokeColor=#82b366;" parent="1" vertex="1">
          <mxGeometry x="660" y="445" width="120" height="60" as="geometry" />
        </mxCell>
        <mxCell id="SnxLVO1X2V7iQgOzjOkk-22" value="Color description:" style="text;html=1;align=center;verticalAlign=middle;resizable=0;points=[];autosize=1;strokeColor=none;fillColor=none;" parent="1" vertex="1">
          <mxGeometry x="570" y="255" width="110" height="30" as="geometry" />
        </mxCell>
      </root>
    </mxGraphModel>
  </diagram>
</mxfile>
